#!OML:ASF I:\Actors\actors\Patient Classification 1\Patient 1\Session 1\Subject1.ASF
:FULLY-SPECIFIED
:DEGREES
666
root 0.59655 17.4807 9.40523 9.45851 -6.02506 -9.29705
lowerback -2.97111 2.15256 6.21229
upperback -6.70622 2.96293 1.73932
thorax -5.09677 1.2151 -1.69796
lowerneck -11.6511 -3.33198 -1.3414
upperneck 30.7366 -6.10458 4.81174
head 12.2572 -2.30197 1.20043
rclavicle 2.48481e-015 7.15625e-015
rhumerus 12.8723 46.4466 -47.4599
rradius 109.073
rwrist 49.6339
rhand -30.5664 -23.0761
rfingers 7.12502
rthumb -3.86447 -53.0208
lclavicle 2.48481e-015 7.15625e-015
lhumerus -43.0517 -25.7414 102.391
lradius 127.296
lwrist 20.255
lhand -19.4697 -5.53658
lfingers 7.12502
lthumb 6.85178 24.3325
rfemur -3.40598 23.8245 25.743
rtibia 2.5183
rfoot -12.1775 -22.5656
rtoes -0.997592
lfemur 12.4533 -51.3967 -18.4144
ltibia -4.72369
lfoot -48.0144 58.7028
ltoes 26.0724
667
root 0.59588 17.48 9.40499 9.4761 -6.00451 -9.27236
lowerback -2.98887 2.16861 6.20123
upperback -6.70715 2.98201 1.71516
thorax -5.08536 1.22486 -1.71634
lowerneck -11.6682 -3.34797 -1.35816
upperneck 30.7752 -6.14132 4.85882
head 12.2806 -2.31307 1.21598
rclavicle -1.44616e-014 4.77083e-015
rhumerus 12.6697 46.9392 -47.4984
rradius 109.468
rwrist 49.1334
rhand -26.9977 -22.4933
rfingers 7.12502
rthumb -0.417856 -52.4726
lclavicle -1.44616e-014 4.77083e-015
lhumerus -43.1047 -25.8148 102.462
lradius 127.293
lwrist 20.3789
lhand -19.7124 -5.39832
lfingers 7.12502
lthumb 6.61749 24.4783
rfemur -3.39906 23.8406 25.7098
rtibia 2.45799
rfoot -12.1942 -22.593
rtoes -0.922014
lfemur 12.4042 -51.4197 -18.407
ltibia -4.70658
lfoot -47.94 58.7456
ltoes 25.9507
668
root 0.594109 17.4807 9.40078 9.53005 -5.95465 -9.36491
lowerback -2.96483 2.17845 6.27018
upperback -6.74476 3.00087 1.74824
thorax -5.13712 1.2296 -1.72188
lowerneck -11.7019 -3.37771 -1.33006
upperneck 30.8945 -6.17838 4.78965
head 12.3341 -2.33182 1.17995
rclavicle 3.72224e-014 -1.82882e-014
rhumerus 12.4759 47.4288 -47.5515
rradius 109.991
rwrist 48.5078
rhand -22.8188 -22.4226
rfingers 7.12502
rthumb 3.61804 -52.3716
lclavicle 3.72224e-014 -1.82882e-014
lhumerus -43.1419 -25.8147 102.529
lradius 127.241
lwrist 20.3924
lhand -19.7603 -5.00285
lfingers 7.12502
lthumb 6.57122 24.8752
rfemur -3.4824 23.903 25.8022
rtibia 2.48603
rfoot -12.2129 -22.678
rtoes -0.902244
lfemur 12.1535 -51.2862 -18.0481
ltibia -4.71881
lfoot -47.5875 58.679
ltoes 25.7701
669
root 0.592348 17.481 9.38966 9.4694 -6.01028 -9.20787
lowerback -2.7018 2.18547 6.06648
upperback -6.79548 3.03318 1.71242
thorax -5.34396 1.24808 -1.65836
lowerneck -11.7678 -3.4019 -1.33444
upperneck 31.0883 -6.22378 4.77888
head 12.429 -2.3485 1.17037
rclavicle 3.51849e-014 -2.42517e-014
rhumerus 12.122 47.8418 -47.7901
rradius 110.469
rwrist 47.9574
rhand -18.7386 -22.7902
rfingers 7.12502
rthumb 7.55746 -52.6352
lclavicle 3.51849e-014 -2.42517e-014
lhumerus -43.2165 -25.7931 102.554
lradius 127.195
lwrist 20.3517
lhand -19.6502 -4.7002
lfingers 7.12502
lthumb 6.67747 25.1745
rfemur -3.54835 24.076 25.6079
rtibia 2.59758
rfoot -12.2401 -22.8174
rtoes -0.660728
lfemur 12.0036 -51.1539 -18.074
ltibia -4.68465
lfoot -47.3841 58.5778
ltoes 25.7337
670
root 0.591836 17.4793 9.37495 9.28972 -6.18814 -8.75143
lowerback -2.22967 2.19892 5.53576
upperback -6.85858 3.0831 1.60487
thorax -5.69132 1.28673 -1.49799
lowerneck -11.7303 -3.40634 -1.33332
upperneck 31.1537 -6.23421 4.77608
head 12.4483 -2.3527 1.16879
rclavicle 2.28602e-015 -5.96354e-015
rhumerus 11.5849 47.9522 -48.2773
rradius 110.825
rwrist 47.1127
rhand -14.8826 -22.3372
rfingers 7.12502
rthumb 11.278 -52.014
lclavicle 2.28602e-015 -5.96354e-015
lhumerus -43.3352 -25.7072 102.59
lradius 127.12
lwrist 20.2252
lhand -19.5363 -4.86221
lfingers 7.12502
lthumb 6.78745 25.009
rfemur -3.56001 24.2854 25.0642
rtibia 2.72448
rfoot -12.2974 -22.9099
rtoes -0.40273
lfemur 12.0652 -51.1125 -18.6751
ltibia -4.57024
lfoot -47.6681 58.4591
ltoes 26.0617
671
root 0.591316 17.4774 9.36864 9.20476 -6.25013 -8.51331
lowerback -1.99212 2.19985 5.17546
upperback -6.90589 3.1002 1.61411
thorax -5.89155 1.30905 -1.30023
lowerneck -11.6461 -3.40986 -1.3303
upperneck 31.1235 -6.21525 4.70804
head 12.4142 -2.35465 1.14644
rclavicle -1.27222e-014 1.07344e-014
rhumerus 11.1716 48.0803 -48.6131
rradius 111.259
rwrist 45.6265
rhand -10.6685 -22.5973
rfingers 7.12502
rthumb 15.3399 -52.0083
lclavicle -1.27222e-014 1.07344e-014
lhumerus -43.4303 -25.536 102.721
lradius 127.028
lwrist 20.0786
lhand -19.4645 -5.07901
lfingers 7.12502
lthumb 6.85681 24.7899
rfemur -3.58414 24.3687 24.7807
rtibia 2.81337
rfoot -12.332 -22.9323
rtoes -0.444936
lfemur 12.0574 -51.0476 -18.9548
ltibia -4.49412
lfoot -47.757 58.3579
ltoes 26.2409
672
root 0.590782 17.4762 9.37222 9.16836 -6.20996 -8.42714
lowerback -2.06439 2.19319 5.10846
upperback -6.86804 3.08204 1.58725
thorax -5.81185 1.30544 -1.28691
lowerneck -11.5916 -3.41051 -1.33836
upperneck 31.0501 -6.23199 4.78107
head 12.3767 -2.35633 1.17371
rclavicle 3.38928e-014 9.93923e-015
rhumerus 10.8375 47.8719 -49.0728
rradius 111.832
rwrist 42.7254
rhand -5.20061 -22.1624
rfingers 7.12502
rthumb 20.6007 -51.0892
lclavicle 3.38928e-014 9.93923e-015
lhumerus -43.468 -25.5085 102.747
lradius 127.045
lwrist 20.1457
lhand -19.6381 -5.00422
lfingers 7.12502
lthumb 6.68922 24.8701
rfemur -3.53153 24.3382 24.7105
rtibia 2.8184
rfoot -12.3568 -22.9495
rtoes -0.575245
lfemur 12.1281 -51.0602 -19.1276
ltibia -4.46974
lfoot -47.6583 58.3814
ltoes 26.107
673
root 0.590218 17.4759 9.37573 9.1412 -6.16869 -8.37449
lowerback -2.14337 2.18037 5.06914
upperback -6.83312 3.05634 1.57178
thorax -5.73146 1.29683 -1.27672
lowerneck -11.5324 -3.39434 -1.3905
upperneck 30.9643 -6.22809 4.90403
head 12.336 -2.34803 1.23043
rclavicle -7.10655e-015 1.51076e-014
rhumerus 10.4679 47.7695 -49.5364
rradius 112.522
rwrist 38.9438
rhand 0.470736 -23.1465
rfingers 7.12502
rthumb 26.0412 -51.3817
lclavicle -7.10655e-015 1.51076e-014
lhumerus -43.5053 -25.4919 102.768
lradius 127.089
lwrist 20.2348
lhand -19.9012 -4.93106
lfingers 7.12502
lthumb 6.4352 24.9512
rfemur -3.483 24.3337 24.6798
rtibia 2.82229
rfoot -12.4281 -22.9977
rtoes -0.47236
lfemur 12.2134 -51.1352 -19.2815
ltibia -4.45122
lfoot -47.4847 58.5294
ltoes 25.8028
674
root 0.588917 17.4761 9.37813 9.15646 -6.11388 -8.36268
lowerback -2.19772 2.17171 5.0595
upperback -6.83743 3.04067 1.56465
thorax -5.70589 1.28996 -1.27629
lowerneck -11.5038 -3.39834 -1.46064
upperneck 30.9151 -6.24908 5.01746
head 12.3179 -2.35281 1.28276
rclavicle 4.96962e-016 3.81667e-014
rhumerus 9.97954 47.5443 -50.0884
rradius 113.005
rwrist 35.6394
rhand 4.88427 -24.0158
rfingers 7.12502
rthumb 30.2596 -51.5557
lclavicle 4.96962e-016 3.81667e-014
lhumerus -43.5335 -25.4693 102.786
lradius 127.091
lwrist 20.2472
lhand -20.0254 -4.99045
lfingers 7.12502
lthumb 6.31531 24.8954
rfemur -3.49775 24.3347 24.674
rtibia 2.84877
rfoot -12.4829 -23.0418
rtoes -0.38475
lfemur 12.1946 -51.2024 -19.2768
ltibia -4.46031
lfoot -47.3622 58.6533
ltoes 25.5539
675
root 0.587233 17.4778 9.38629 9.26609 -5.96758 -8.57978
lowerback -2.49394 2.16057 5.32152
upperback -6.80262 3.00691 1.60176
thorax -5.49352 1.26641 -1.36944
lowerneck -11.5202 -3.41938 -1.52764
upperneck 30.8792 -6.29813 5.13422
head 12.3163 -2.36818 1.33111
rclavicle -1.07841e-014 -2.14687e-014
rhumerus 9.56961 47.1799 -50.6236
rradius 113.519
rwrist 32.8728
rhand 8.32193 -24.7037
rfingers 7.12502
rthumb 33.5331 -51.5899
lclavicle -1.07841e-014 -2.14687e-014
lhumerus -43.4748 -25.4801 102.751
lradius 127.107
lwrist 20.2642
lhand -20.0169 -5.11447
lfingers 7.12502
lthumb 6.32348 24.7711
rfemur -3.51918 24.2687 24.9302
rtibia 2.80312
rfoot -12.4801 -23.0747
rtoes -0.491595
lfemur 12.0808 -51.2302 -18.8904
ltibia -4.5354
lfoot -47.3211 58.5968
ltoes 25.5372
676
root 0.586283 17.4808 9.4004 9.44525 -5.71893 -9.05187
lowerback -2.80846 2.13059 5.8013
upperback -6.84695 2.95446 1.75418
thorax -5.35564 1.22296 -1.46413
lowerneck -11.4857 -3.43131 -1.58315
upperneck 30.8944 -6.31453 5.16989
head 12.3193 -2.37786 1.35267
rclavicle 7.05686e-015 8.34896e-015
rhumerus 9.0363 46.9235 -51.1449
rradius 113.96
rwrist 31.4602
rhand 10.4128 -25.2888
rfingers 7.12502
rthumb 35.5178 -51.7224
lclavicle 7.05686e-015 8.34896e-015
lhumerus -43.5665 -25.4227 102.857
lradius 127.169
lwrist 20.2178
lhand -19.9493 -5.06362
lfingers 7.12502
lthumb 6.3888 24.82
rfemur -3.52148 24.0872 25.4941
rtibia 2.69868
rfoot -12.467 -23.061
rtoes -0.51068
lfemur 11.955 -51.2844 -18.1951
ltibia -4.6373
lfoot -47.1972 58.5298
ltoes 25.4817
677
root 0.585803 17.482 9.40851 9.51973 -5.57338 -9.27747
lowerback -2.93074 2.10725 6.06941
upperback -6.89097 2.91883 1.80442
thorax -5.32878 1.19288 -1.55579
lowerneck -11.404 -3.43079 -1.53676
upperneck 30.8341 -6.31159 5.1414
head 12.2747 -2.37784 1.33513
rclavicle -1.11816e-014 -2.78299e-015
rhumerus 8.4416 46.6382 -51.7606
rradius 114.483
rwrist 29.9073
rhand 12.329 -25.7288
rfingers 7.12502
rthumb 37.3318 -51.7068
lclavicle -1.11816e-014 -2.78299e-015
lhumerus -43.6469 -25.3974 102.909
lradius 127.222
lwrist 20.1345
lhand -19.9405 -4.85193
lfingers 7.12502
lthumb 6.39721 25.0315
rfemur -3.49138 23.9493 25.777
rtibia 2.62486
rfoot -12.442 -23.0444
rtoes -0.41337
lfemur 11.9353 -51.3556 -17.9051
ltibia -4.67358
lfoot -47.0636 58.5881
ltoes 25.286
678
root 0.584929 17.4813 9.41081 9.51417 -5.55695 -9.28085
lowerback -2.97133 2.09063 6.05853
upperback -6.88511 2.89337 1.81819
thorax -5.3023 1.18202 -1.53358
lowerneck -11.3581 -3.41233 -1.46298
upperneck 30.753 -6.26709 5.04913
head 12.2236 -2.36373 1.29381
rclavicle 1.963e-014 2.78299e-015
rhumerus 8.07467 46.3771 -52.2154
rradius 114.95
rwrist 27.8993
rhand 14.3273 -26.1713
rfingers 7.12502
rthumb 39.218 -51.6286
lclavicle 1.963e-014 2.78299e-015
lhumerus -43.6399 -25.3524 102.931
lradius 127.246
lwrist 20.0791
lhand -19.9262 -4.88969
lfingers 7.12502
lthumb 6.41108 24.9933
rfemur -3.45744 23.9478 25.7965
rtibia 2.60649
rfoot -12.4296 -23.0583
rtoes -0.300957
lfemur 12.0008 -51.4427 -17.9607
ltibia -4.67646
lfoot -47.0986 58.6885
ltoes 25.1789
679
root 0.583342 17.4804 9.41365 9.51072 -5.55266 -9.31373
lowerback -3.00415 2.08646 6.07674
upperback -6.88672 2.88584 1.83551
thorax -5.28617 1.17827 -1.52435
lowerneck -11.3535 -3.38981 -1.37796
upperneck 30.7449 -6.21718 4.93294
head 12.2094 -2.3464 1.24222
rclavicle -1.38652e-014 -7.15625e-015
rhumerus 7.73342 46.1067 -52.6788
rradius 115.281
rwrist 25.8175
rhand 16.1609 -26.4728
rfingers 7.12502
rthumb 40.9433 -51.4072
lclavicle -1.38652e-014 -7.15625e-015
lhumerus -43.6659 -25.3244 102.974
lradius 127.265
lwrist 20.0297
lhand -19.8513 -5.14353
lfingers 7.12502
lthumb 6.48337 24.7372
rfemur -3.42952 23.976 25.8495
rtibia 2.60813
rfoot -12.4335 -23.0652
rtoes -0.295333
lfemur 12.1243 -51.5817 -18.0316
ltibia -4.69439
lfoot -47.3013 58.8079
ltoes 25.1146
